<svg height="512pt" viewBox="0 -3 512.00022 512" width="512pt" xmlns="http://www.w3.org/2000/svg"><path d="m208.453125 417.296875c46.578125 12.496094 95.023437 18.832031 143.992187 18.832031h.007813c26.136719 0 52.3125-1.847656 77.804687-5.488281 49.078126-7.011719 73.625-20.589844 72.953126-40.355469-.398438-11.523437-8.804688-23.859375-15.550782-33.761718 0 0-1.457031-2.148438-1.8125-2.679688-8.53125-12.652344-18.441406-24.28125-29.445312-34.5625-12.410156-11.609375-26.121094-21.429688-40.75-29.183594-1.035156-.546875-2.078125-1.070312-3.117188-1.59375l-3.085937-1.554687-1.464844 2.257812c-2.003906 3.097657-5.480469 5.238281-9.109375 5.589844-.320312.035156-.664062.050781-1.050781.050781-3.769531 0-7.507813-1.828125-9.753907-4.773437-1.957031-2.574219-2.988281-5.992188-3.242187-10.753907l-.109375-2.105468-2.019531-.609375c-12.121094-3.644531-24.59375-6.039063-37.078125-7.113281l-2.640625-.230469-.550781 2.59375c-.261719 1.226562-.742188 2.398437-1.257813 3.605469-1.300781 3.066406-2.773437 6.546874-5.027344 9.347656-2.488281 3.09375-5.75 4.996094-8.957031 5.21875-.144531.011718-.292969.011718-.4375.011718-.054688 0-.105469 0-.15625 0-4.285156 0-8.695312-3.089843-10.726562-7.515624-1.242188-2.695313-1.761719-5.902344-1.539063-9.53125l.214844-3.550782-3.535157.386719c-9.285156 1.007813-18.410156 2.742187-27.117187 5.148437-44.015625 12.191407-82.4375 43.085938-102.777344 82.640626-6.066406 11.796874-11.707031 28.554687-4.125 41.398437 6.0625 10.273437 18.707031 14.859375 31.464844 18.28125zm181.558594-106.234375c2.289062-3.957031 6.875-6.515625 11.683593-6.515625l.117188.003906c7.054688.113281 15.101562 7.296875 18.195312 13.9375 2.148438 4.605469 2.15625 9.234375.023438 12.386719-2.585938 3.8125-7.117188 4.222656-8.945312 4.222656-1.105469 0-2.238282-.132812-3.28125-.390625-4.542969-1.109375-8.386719-4.140625-11.625-6.890625-2.289063-1.953125-4.472657-3.921875-6.015626-6.492187-1.996093-3.320313-2.050781-6.96875-.152343-10.261719zm-44.835938-15.722656c.628907-3.464844 2.40625-5.925782 5.273438-7.320313 1.695312-.820312 3.664062-1.234375 5.847656-1.234375 3.207031 0 6.917969.945313 9.917969 2.535156 5.890625 3.128907 11.917968 11.550782 11.503906 19.09375-.253906 4.542969-2.863281 7.929688-7.554688 9.792969-1.277343.511719-2.699218.773438-4.222656.773438-3.542968 0-7.425781-1.4375-11.003906-4.066407l-.535156-.414062c-5.382813-4.167969-10.632813-11.394531-9.226563-19.160156zm-33.511719 26.578125c1.492188-6.054688 6.5-15.238281 12.503907-15.726563.289062-.023437.574219-.035156.855469-.035156 2.574218 0 4.863281.96875 6.800781 2.878906 3.628906 3.585938 4.980469 9.535156 4.695312 13.546875-.371093 5.351563-2.601562 10.078125-6.109375 12.96875-2.332031 1.90625-5.230468 2.960938-8.167968 2.960938-2.039063 0-3.964844-.523438-5.574219-1.511719-5.203125-3.183594-6.238281-10.050781-5.003907-15.082031zm-35.636718-21.621094c2.859375-3.328125 14.570312-11.210937 22.359375-11.210937.933593 0 1.777343.117187 2.515625.347656 1.722656.535156 3.863281 2.042968 4.285156 6.164062.257812 2.488282-.753906 5.191406-3.007812 8.03125-4.535157 5.742188-11.613282 9.503906-18.890626 10.058594-.550781.035156-1.078124.0625-1.585937.0625-1.65625 0-3.066406-.226562-4.300781-.691406-2.035156-.777344-3.554688-2.222656-4.167969-3.96875-.222656-.636719-.332031-1.265625-.332031-1.929688 0-2.113281 1.082031-4.488281 3.125-6.863281zm0 0" fill="#f7b36f"/><path d="m496.398438 416.023438-1.773438-1.863282-2.113281 1.464844c-18.480469 12.816406-48.761719 17.132812-61.695313 18.976562-25.6875 3.667969-52.050781 5.527344-78.355468 5.527344-49.335938 0-98.132813-6.378906-145.039063-18.964844-6.847656-1.839843-15.609375-4.519531-22.664063-8.953124l-2.351562-1.480469-1.65625 2.234375c-.066406.089844-.128906.183594-.191406.285156-10.75 13.445312-5.945313 34.679688 4.71875 46.703125 12 13.523437 30.023437 19.917969 46.070312 24.386719 34.464844 9.59375 71.265625 14.257812 112.5 14.257812 25.765625 0 52.976563-1.78125 83.195313-5.449218 14.632812-1.777344 30.078125-4.019532 43.898437-10.058594 15.175782-6.640625 26.300782-17.164063 31.320313-29.636719 5.296875-13.128906 2.9375-28.167969-5.863281-37.429687zm0 0" fill="#f7b36f"/><path d="m120.46875 145.960938c51.90625 0 103.664062-6.851563 148.097656-13.273438l.109375-.015625c8.480469-1.230469 18.09375-2.628906 26.480469-6.425781 9-4.066406 15.574219-10.699219 18.035156-18.199219 5.074219-15.449219-7.90625-36.777344-37.539062-61.683594-11.5625-9.722656-24.46875-17.878906-38.359375-24.25l-2.722657-1.25-1.253906 2.726563c-1.996094 4.347656-5.820312 7.703125-10.238281 8.980468-1.355469.398438-2.804687.601563-4.304687.601563-4.519532 0-8.992188-1.886719-11.96875-5.042969-3.53125-3.738281-5.078126-9.277344-4.039063-14.449218l.589844-2.941407-2.941407-.589843c-6.601562-1.320313-13.234374-2.234376-19.71875-2.71875l-2.160156-.160157-.832031 2c-2.484375 5.980469-5.175781 10.316407-8.464844 13.652344-4.265625 4.320313-9.675781 6.8125-14.914062 6.839844-5.84375 0-11.351563-3.40625-13.390625-8.28125-.914063-2.175781-1.058594-4.828125-.402344-7.269531l1.277344-4.761719-4.8125 1.050781c-50.289063 10.953125-94.40625 46.273438-115.136719 92.175781-4.996094 11.058594-5.832031 19.0625-2.625 25.195313 4.320313 8.253906 14.921875 10.9375 24.726563 12.472656 24.117187 3.78125 49.144531 5.617188 76.507812 5.617188zm101.382812-93.882813c1.132813-4.054687 6.449219-6.871094 11.210938-7.863281.953125-.195313 1.953125-.296875 2.96875-.296875 5.078125 0 10.085938 2.460937 12.460938 6.121093 2.183593 3.375 1.832031 7.371094-.988282 11.257813-1.394531 1.917969-3.597656 3.328125-6.214844 3.972656-1 .253907-2.074218.378907-3.199218.378907-.753906 0-1.472656-.050782-2.128906-.15625-3.734376-.605469-7.503907-2.652344-11.199219-6.078126-2.609375-2.429687-3.589844-4.898437-2.910157-7.335937zm-45.011718-9.441406c2.175781-3.707031 5.960937-5.941407 10.648437-6.296875.34375-.023438.683594-.039063 1.023438-.039063 4.347656 0 8.164062 2.113281 10.742187 5.949219 3.480469 5.195312 4.0625 12.878906 1.386719 18.265625-1.613281 3.222656-4.042969 5.582031-6.863281 6.652344-1.296875.5-2.617188.75-3.925782.75-6.003906 0-11.09375-5.101563-13.285156-9.847657-2.390625-5.167968-2.289062-11.082031.273438-15.433593zm-41.0625 15.410156c2.636718-5.960937 7.054687-13.0625 13.101562-13.0625.917969 0 1.871094.160156 2.832032.476563 2.820312.925781 5.199218 3.3125 6.527343 6.546874 1.035157 2.527344 1.453125 5.507813 1.308594 9.371094-.226563 5.636719-1.574219 10.1875-3.996094 13.523438-2.5625 3.507812-6.566406 5.6875-10.445312 5.6875-.667969 0-1.316407-.0625-1.933594-.1875-4.160156-.847656-7.769531-4.539063-8.972656-9.183594-1.296875-5.019531.140625-9.933594 1.578125-13.171875zm-41.007813-14.898437c3.90625-5.585938 10.433594-10.402344 19.402344-14.320313 1.425781-.621094 3.011719-.949219 4.578125-.949219 2.332031 0 4.476562.699219 6.039062 1.976563 2.152344 1.753906 2.976563 4.421875 2.328126 7.519531-.523438 2.480469-1.988282 4.957031-4.488282 7.578125-4.992187 5.25-11.644531 8.890625-18.734375 10.25-.882812.171875-2.21875.398437-3.660156.398437-.984375 0-1.902344-.105468-2.726563-.316406-2.289062-.585937-4.074218-2.054687-4.773437-3.921875-.84375-2.261719-.136719-5.101562 2.035156-8.214843zm0 0" fill="#f7b36f"/><path d="m297.105469 230.679688c8.796875-6.902344 14.527343-16.664063 15.316406-26.121094l.398437-4.734375-4.445312 1.679687c-3.171875 1.199219-6.617188 2.097656-10.242188 2.671875-3.675781.574219-7.648437.851563-12.148437.851563-4.929687 0-9.90625-.332032-14.71875-.652344l-1.140625-.078125c-.738281-.050781-1.472656-.097656-2.1875-.140625-3.527344-.226562-7.320312-.433594-11.183594-.433594-6.984375 0-12.621094.683594-17.75 2.15625-5.632812 1.617188-10.855468 4.253906-16.464844 7.085938-7.421874 3.757812-15.097656 7.644531-23.65625 8.644531-1.511718.179687-3.082031.269531-4.675781.269531-7.765625 0-15.480469-2.125-23.03125-4.203125-7.511719-2.078125-14.605469-4.039062-21.765625-4.039062-2.089844 0-4.125.175781-6.039062.519531-5.871094 1.042969-11.46875 3.808594-16.933594 6.515625-6.84375 3.363281-13.917969 6.839844-21.800781 7.171875-.417969.019531-.835938.027344-1.253907.027344-9.332031 0-17.738281-4.359375-25.867187-8.570313l-.105469-.054687c-5.957031-3.085938-11.582031-6.003906-17.664062-7.453125-5.1875-1.242188-10.585938-1.347657-15.671875-1.347657l-3.300781.007813c-2.597657 0-5.136719-.011719-7.644532-.128906-1.796875-.082031-3.652344-.253907-5.507812-.515625l-3.304688-.464844-.109375 3.335938c-.460937 14.03125 10.160157 25.308593 19.394531 30.699218 11.8125 6.902344 25.679688 8.914063 40.039063 10.523438 27.015625 3.027344 51.382813 4.503906 74.496094 4.503906 39.003906 0 73.695312-4.300781 106.035156-13.144531 11.398437-3.105469 23.277344-7.023438 32.933594-14.582031zm0 0" fill="#f7b36f"/><path d="m25.65625 174.59375c2.699219.664062 5.5.710938 8.472656.765625h.109375c2.84375.046875 5.78125.097656 8.691407.707031 6.113281 1.277344 11.214843 4.800782 16.179687 8.226563 1.101563.753906 2.199219 1.511719 3.304687 2.234375 5.757813 3.789062 10.652344 5.632812 14.957032 5.632812 1.238281 0 2.441406-.15625 3.578125-.460937 2.988281-.800781 5.691406-2.648438 8.570312-4.617188 3.894531-2.664062 7.921875-5.417969 12.871094-5.519531h.351563c5.089843 0 9.242187 2.722656 13.261718 5.363281 3.148438 2.058594 6.117188 4.007813 9.390625 4.648438.839844.167969 1.710938.253906 2.585938.253906 4.949219 0 9.703125-2.683594 14.777343-5.546875 4.609376-2.605469 9.378907-5.296875 14.675782-6.09375 1.175781-.179688 2.355468-.265625 3.605468-.265625 4.324219 0 8.578126 1.082031 12.6875 2.125 2.453126.628906 4.5 1.140625 6.601563 1.507813 2.820313.5 5.78125.742187 9.050781.742187 6.574219 0 13.210938-1 19.640625-1.96875l19.140625-2.890625c6.140625-.925781 12.488282-1.878906 18.503906-3.601562 9.535157-2.71875 18.605469-7.480469 26.226563-13.773438.460937-.375.945313-.457031 1.269531-.457031.570313 0 1.09375.234375 1.484375.664062 5.070313 5.566407 12.835938 8.761719 21.304688 8.761719h.199219c8.523437-.101562 16.285156-3.464844 21.296874-9.230469 5.019532-5.761719 7.273438-13.917969 6.183594-22.375-1.015625-7.832031-4.828125-14.835937-10.46875-19.207031l-2.15625-1.671875-1.867187 1.988281c-3.574219 3.800782-8.183594 7.03125-13.332031 9.351563-8.9375 4.042969-18.878907 5.480469-27.671876 6.753906-44.601562 6.445313-96.546874 13.320313-148.652343 13.320313-27.550781 0-52.789063-1.855469-77.148438-5.675782-4.449219-.691406-11.023437-1.925781-16.683593-4.640625l-1.8125-.871093-1.492188 1.347656c-.203125.183594-.390625.308594-.535156.375-6.773438 2.9375-11.417969 10.703125-10.804688 18.0625.609375 7.363281 6.476563 14.253906 13.652344 16.035156zm0 0" fill="#c67045"/><g fill="#ffeac0"><path d="m411.023438 337.085938c-1.265626 0-2.511719-.148438-3.703126-.4375-4.726562-1.160157-8.769531-4.195313-12.433593-7.304688-2.320313-1.988281-4.742188-4.171875-6.4375-6.984375-.976563-1.625-1.570313-3.351563-1.757813-5.121094l-.449218-4.25 2.566406-3.765625c1.167968-1.71875 2.789062-3.226562 4.6875-4.367187l6.230468-3.742188 6.742188 2.347657c6.136719 2.136718 12.449219 7.96875 15.351562 14.183593 2.449219 5.25 2.398438 10.621094-.140624 14.363281-2.15625 3.179688-6.140626 5.078126-10.65625 5.078126zm-45.128907-16.074219c-5.566406 0-10.359375-3.085938-12.722656-4.925781-5.839844-4.539063-11.523437-12.460938-9.972656-21.101563.082031-.441406.195312-.914063.34375-1.425781l1.253906-4.324219 3.503906-2.285156c.421875-.273438.851563-.519531 1.269531-.726563 1.949219-.945312 4.230469-1.425781 6.785157-1.425781 3.609375 0 7.441406.976563 10.789062 2.753906 6.675781 3.550781 12.066407 11.796875 12.542969 19.175781l.300781 4.699219-2.402343 3.523438c-1.523438 2.238281-3.765626 3.960937-6.660157 5.113281-1.578125.628906-3.269531.949219-5.03125.949219zm26.808594-25.113281c-2.496094-.953126-4.644531-2.550782-6.222656-4.621094-1.804688-2.367188-2.914063-5.371094-3.398438-9.191406l-1.003906-7.941407 7.578125 2.582031c5.933594 2.023438 11.796875 4.355469 17.4375 6.9375l5.710938 2.613282-3.828126 4.980468c-.972656 1.265626-2.179687 2.371094-3.589843 3.289063l-6 3.902344zm-66.191406-3.851563c-5.828125 0-10.546875-4.507813-12.464844-8.695313-1.523437-3.300781-2.070313-7.191406-1.628906-11.582031l.421875-4.175781 4.183594-.308594c4.339843-.320312 8.703124-.484375 12.96875-.484375 2.957031 0 6.078124.085938 9.539062.265625l6.453125.332032-1.941406 6.164062c-.304688.96875-.675781 1.859375-1.03125 2.691406-.613281 1.445313-1.21875 2.855469-1.933594 4.308594l-2.507813 5.121094-3.113281 2.714844c-2.460937 2.148437-5.347656 3.433593-8.125 3.621093-.269531.019531-.546875.027344-.820312.027344zm0 0"/><path d="m322.238281 340.503906c-2.40625 0-4.695312-.621094-6.621093-1.800781-6.054688-3.710937-7.296876-11.554687-5.890626-17.269531 1.3125-5.351563 6.523438-16.597656 14.273438-17.234375.347656-.03125.707031-.046875 1.058594-.046875 3.109375 0 5.859375 1.167968 8.179687 3.472656 4.097657 4.027344 5.601563 10.480469 5.28125 15.101562-.417969 5.90625-2.914062 11.148438-6.847656 14.371094-2.675781 2.199219-6.023437 3.40625-9.433594 3.40625zm0 0"/><path d="m281.636719 315.746094c-1.863281 0-3.480469-.265625-4.9375-.816406-2.59375-1-4.554688-2.894532-5.355469-5.195313-1.535156-4.363281 1.320312-8.601563 3.15625-10.742187 3.609375-4.1875 15.851562-11.933594 23.78125-11.933594 1.152344 0 2.230469.152344 3.207031.457031 4.160157 1.335937 5.394531 5.019531 5.6875 7.871094.316407 3.023437-.832031 6.207031-3.417969 9.480469-4.898437 6.1875-12.511718 10.230468-20.355468 10.808593-.609375.046875-1.214844.070313-1.765625.070313zm0 0"/><path d="m238.128906 67.652344c-.828125 0-1.664062-.066406-2.480468-.195313-4.128907-.65625-8.246094-2.871093-12.238282-6.582031-3.105468-2.871094-3.757812-5.574219-3.757812-7.335938 0-.691406.097656-1.375.285156-2.03125 1.433594-5.175781 7.75-8.210937 12.722656-9.25l.113282-.027343c1.035156-.199219 2.144531-.308594 3.238281-.308594 5.742187 0 11.429687 2.824219 14.15625 7.027344 2.648437 4.117187 2.285156 8.921875-1.035157 13.511719-1.667968 2.296874-4.273437 3.984374-7.332031 4.75-1.183593.292968-2.425781.441406-3.671875.441406zm0 0"/><path d="m218.714844 35.183594c-5.089844 0-9.960938-2.066406-13.359375-5.671875-3.953125-4.199219-5.707031-10.371094-4.578125-16.105469l1.003906-5.117188 5.070312 1.21875c8.761719 2.105469 17.378907 4.910157 25.621094 8.335938l4.808594 2-2.195312 4.726562c-2.21875 4.773438-6.496094 8.480469-11.4375 9.921876-1.582032.457031-3.246094.691406-4.933594.691406zm0 0"/><path d="m189.863281 69.902344c-6.101562 0-12.03125-4.316406-15.109375-11-2.710937-5.84375-2.574218-12.300782.363282-17.28125 2.554687-4.355469 6.78125-6.867188 12.222656-7.277344.410156-.027344.816406-.042969 1.203125-.042969 5.078125 0 9.351562 2.363281 12.367187 6.835938 3.921875 5.84375 4.550782 14.183593 1.519532 20.273437-1.828126 3.652344-4.644532 6.363282-7.921876 7.625-1.5.574219-3.0625.867188-4.644531.867188zm0 0"/><path d="m154.417969 31.761719c-6.832031 0-12.957031-3.824219-15.339844-9.511719-1.234375-2.945312-1.289063-6.453125-.15625-9.640625.472656-1.320313 1.144531-2.542969 1.992187-3.628906l1.195313-1.527344 1.910156-.324219c4.921875-.832031 9.773438-1.417968 14.421875-1.746094 3.441406-.238281 6.96875-.359374 10.480469-.359374 1.445313 0 2.890625.019531 4.335937.058593l2.066407.058594 1.1875 1.246094 3.863281 2.078125-2.003906 4.285156c-2.257813 4.828125-4.78125 8.617188-7.714844 11.585938-4.625 4.671874-10.535156 7.378906-16.222656 7.425781zm0 0"/><path d="m145.109375 82.59375c-.800781 0-1.589844-.078125-2.347656-.234375-4.8125-.976563-9.125-5.347656-10.496094-10.632813-1.449219-5.589843.121094-10.972656 1.6875-14.5 4.179687-9.429687 9.242187-14.207031 15.050781-14.207031 1.082032 0 2.183594.179688 3.277344.523438 3.390625 1.105469 6.25 3.914062 7.804688 7.691406 1.148437 2.8125 1.609374 6.066406 1.453124 10.226563-.226562 6.015624-1.703124 10.933593-4.382812 14.621093-2.921875 4.015625-7.539062 6.511719-12.046875 6.511719zm0 0"/><path d="m100.214844 57.605469c-1.144532 0-2.191406-.125-3.199219-.382813-2.949219-.765625-5.257813-2.714844-6.167969-5.207031-1.082031-2.886719-.285156-6.335937 2.289063-10.015625 4.125-5.894531 10.933593-10.941406 20.234375-15.003906 1.667968-.730469 3.523437-1.117188 5.382812-1.117188 2.792969 0 5.386719.863282 7.300782 2.429688 2.761718 2.242187 3.832031 5.605468 3.019531 9.46875-.609375 2.855468-2.246094 5.660156-4.996094 8.554687-5.265625 5.542969-12.296875 9.394531-19.800781 10.835938-1.535156.296875-2.867188.4375-4.0625.4375zm0 0"/></g><path d="m323.417969 162.558594-3.324219 3.316406c-5.730469 5.722656-14.078125 9.054688-22.902344 9.144531 0 0-.375.011719-.410156.011719-7.910156 0-15.378906-2.550781-21.027344-7.175781l-1.800781-1.472657-1.875 1.378907c-7.28125 5.339843-15.6875 9.464843-24.320313 11.921875-6.242187 1.785156-12.707031 2.761718-18.992187 3.707031l-19.152344 2.894531c-6.542969.984375-13.3125 2.003906-20.269531 2.003906-3.507812 0-6.691406-.257812-9.71875-.792968-2.265625-.402344-4.449219-.949219-6.933594-1.589844-4.046875-1.019531-7.871094-1.984375-11.714844-1.984375-1.019531 0-2.011718.070313-2.953124.210937-4.59375.699219-9.03125 3.214844-13.328126 5.652344-5.269531 2.96875-10.714843 6.042969-16.726562 6.042969-1.125 0-2.25-.113281-3.355469-.332031-4.035156-.796875-7.625-3.148438-10.871093-5.273438-3.660157-2.398437-7.117188-4.664062-10.972657-4.664062l-.238281.003906c-3.84375.078125-7.203125 2.382812-10.753906 4.824219-2.871094 1.964843-6.125 4.195312-9.804688 5.175781-1.464844.398438-3.007812.597656-4.589844.597656-5.125 0-10.742187-2.054687-17.164062-6.28125-1.128906-.746094-2.261719-1.523437-3.410156-2.320312-4.828125-3.324219-9.390625-6.460938-14.691406-7.570313-2.558594-.546875-5.300782-.585937-7.941407-.628906h-.140625c-3.0625-.054687-6.226562-.113281-9.34375-.890625-2.324218-.574219-4.582031-1.59375-6.710937-3.035156l-2.738281-1.847656-1.574219 2.902343c-.148438.269531-.417969.632813-.902344.851563-2.714844 1.226562-4.628906 3.761718-5.386719 7.117187-1.035156 4.492188.121094 9.574219 2.941406 12.945313 4.527344 5.421875 12.269532 8.425781 23.007813 8.925781 2.378906.113281 4.695313.121094 7.257813.121094l3.355468-.003907c5.382813 0 11.105469.113282 16.722656 1.453126 6.617188 1.582031 12.730469 4.757812 18.648438 7.824218l.203125.105469c7.972656 4.132813 15.507813 8.035156 23.820313 8.035156.382812 0 .765624-.007812 1.136718-.023437 7.050782-.285156 13.457032-3.441406 20.257813-6.789063 5.65625-2.800781 11.503906-5.691406 17.9375-6.835937 2.175781-.386719 4.375-.578125 6.714843-.578125 7.707032 0 15.398438 2.125 22.886719 4.191406 7.558594 2.082031 14.699219 4.050781 21.945313 4.050781 1.433594 0 2.847656-.078125 4.203125-.238281 7.8125-.90625 14.832031-4.457031 22.261719-8.210937l-1.355469-2.679688 1.453125 2.628906c5.460937-2.761718 11.109375-5.617187 17.121094-7.34375 5.511718-1.578125 11.492187-2.316406 18.8125-2.316406 4.003906 0 8.046874.226562 11.476562.449219l3.230469.207031c4.804687.324219 9.769531.660156 14.566406.660156 4.261719 0 8.03125-.265625 11.527344-.808594 6.15625-.960937 17.480469-3.941406 24.222656-13.101562 4.265625-5.777344 5.589844-13.875 3.292969-20.152344zm0 0" fill="#ed6d66"/><path d="m501.835938 411.585938c5.398437-5.800782 8.664062-12.875 8.367187-21.542969-.460937-13.53125-9.5-26.808594-16.761719-37.472657-.613281-.902343-1.210937-1.785156-1.792968-2.644531-8.8125-13.070312-19.0625-25.105469-30.46875-35.765625-12.878907-12.039062-27.09375-22.21875-42.253907-30.246094-42.226562-22.371093-92.121093-28.085937-136.898437-15.683593-45.867188 12.703125-85.917969 44.921875-107.136719 86.183593-9.855469 19.160157-11.214844 35.8125-3.929687 48.160157 1.289062 2.1875 2.804687 4.144531 4.480468 5.917969-.066406.074218-.144531.132812-.207031.210937-13.382813 16.507813-8.0625 41.382813 4.8125 55.894531 13.214844 14.890625 32.398437 21.746094 49.425781 26.484375 34.871094 9.710938 72.246094 14.515625 114.335938 14.511719 26.050781 0 53.910156-1.839844 84.082031-5.5 15.128906-1.835938 31.136719-4.164062 45.855469-10.59375 16.867187-7.367188 29.304687-19.242188 35.019531-33.4375 6.21875-15.445312 3.238281-33.386719-6.929687-44.476562zm-101.992188-105.511719c.59375.195312 1.410156.382812 2.410156.355469.476563-.019532.898438-.09375 1.246094-.175782 7.285156 1.832032 14.148438 10.792969 14.5 19.042969.070312 1.671875-.164062 2.957031-.679688 3.714844-.359374.53125-1.050781 1.058593-1.9375 1.484375-2.648437 1.265625-6.09375 1.289062-9.449218.0625-3.117188-1.136719-6.15625-3.257813-9.292969-6.488282-2.941406-3.027343-4.457031-5.664062-4.636719-8.058593-.335937-4.433594 3.761719-8.398438 7.839844-9.9375zm-3.132812-13.332031c-2.957032-.296876-5.808594-2-7.625-4.554688-1.371094-1.933594-2.152344-4.320312-2.257813-6.792969 6.746094 2.21875 13.367187 4.832031 19.824219 7.832031-3.257813 2.558594-6.769532 3.835938-9.941406 3.515626zm-55.617188-20.179688c-.414062 1.265625-.882812 2.511719-1.417969 3.730469-1.800781 4.117187-3.996093 7.0625-6.519531 8.75-3.910156 2.617187-9.691406 2.449219-13.445312-.386719-3.492188-2.636719-5.238282-7.589844-4.300782-11.871094 8.558594-.683594 17.144532-.761718 25.683594-.222656zm-157.3125 86.421875c20.753906-40.359375 60.367188-71.34375 104.480469-81.910156 5.609375-1.34375 11.269531-2.390625 16.949219-3.175781-.140626 2.574218.1875 5.175781.929687 7.652343-7.539063-3.753906-16.304687.175781-20.265625 1.953125-6.175781 2.769532-13.132812 6.449219-17.898438 12.730469-.976562 1.285156-1.789062 2.605469-2.421874 3.917969-.761719 1.585937-1.277344 3.207031-1.53125 4.8125-1.007813 6.386718 2.378906 12.34375 8.839843 15.542968 3.339844 1.652344 7.121094 2.492188 11 2.492188 2.867188 0 5.789063-.460938 8.617188-1.386719 5.71875-1.871093 11.050781-5.578125 15.417969-10.722656 3.546874-4.175781 5.660156-8.464844 6.277343-12.753906.25-1.75.226563-3.5-.035156-5.1875 3.648437 2.601562 8.125 3.925781 12.609375 3.925781 4.222656 0 8.449219-1.167969 11.964844-3.519531.621094-.414063 1.210937-.871094 1.792968-1.347657-1.964843 4.660157-2.203124 10.035157-.515624 14.917969.019531.054688.042968.109375.0625.164063-.945313-1.355469-2.046876-2.582032-3.316407-3.597656-3.542969-2.839844-7.8125-3.96875-12.347656-3.261719-5.492187.851562-10.980469 4.5-14.320313 9.515625-3.148437 4.734375-4.894531 9.210937-5.34375 13.691406-.589843 5.949219 1.359376 11.734375 5.21875 15.480469 3.25 3.15625 7.789063 4.828125 12.570313 4.828125 2.332031 0 4.71875-.398438 7.039063-1.21875 2.613281-.921875 4.828124-2.238282 6.585937-3.917969 2.460937-2.347656 3.855469-5.222656 4.796875-7.464844 2.074219-4.945312 2.941406-9.441406 2.65625-13.746093-.121094-1.84375-.492188-3.613282-1.042969-5.285157 3.082031 4.730469 7.886719 8.65625 13.804688 11.144531 3.1875 1.339844 6.074219 1.996094 8.804687 1.996094.203125 0 .402344-.003906.601563-.011718 6.4375-.226563 12.496093-4.304688 15.441406-10.378907 2.585937-5.335937 2.652344-12.007812.179687-17.839843-2.125-5.019532-6.125-9.519532-11.265624-12.667969-3.714844-2.277344-7.5-3.570313-11.246094-3.84375-4.28125-.300781-8.34375.820312-11.699219 3.160156.582031-1.066406 1.140625-2.171875 1.664063-3.371094.964843-2.203125 1.773437-4.484375 2.417968-6.808593 8.675782 1.035156 17.265625 2.699218 25.703125 4.960937-.558593 5.523437.859375 11.144531 3.980469 15.53125 2.117188 2.980469 5.011719 5.351563 8.261719 6.882813-5.351563 4.550781-7.554688 10.828124-7.171875 15.898437.367187 4.824219 2.796875 9.492187 7.4375 14.273437 4.210937 4.335938 8.476562 7.25 13.039062 8.917969 2.738282 1 5.566406 1.496094 8.316406 1.496094 3.140626 0 6.179688-.648437 8.878907-1.9375 2.527343-1.214844 4.507812-2.851563 5.886719-4.875 1.761718-2.585937 2.570312-5.871094 2.402343-9.769531-.464843-10.9375-7.671875-21.664063-17.015625-26.410156 1.828125-1.230469 3.589844-2.714844 5.253906-4.429688 6.507813 3.503906 12.820313 7.402344 18.882813 11.714844 6.753906 4.804687 13.1875 10.058594 19.242187 15.71875 10.851563 10.144531 20.613282 21.601562 29.007813 34.050781.585937.871094 1.195313 1.765625 1.816406 2.679687 6.539063 9.601563 14.671875 21.546876 15.035157 32.1875.613281 17.980469-23.066407 30.527344-70.378907 37.289063-73.046875 10.4375-149.328125 5.847656-220.601562-13.277344-12.148438-3.257812-24.148438-7.5625-29.660157-16.90625-6.886718-11.664062-1.511718-27.378906 4.210938-38.503906zm120.496094-62.273437c-.34375 2.394531-1.691406 4.988281-4 7.703124-3.171875 3.738282-6.945313 6.398438-10.910156 7.695313-4.179688 1.367187-8.578126 1.160156-12.066407-.566406-1.453125-.71875-3.824219-2.328125-3.402343-5.023438.101562-.644531.324218-1.328125.667968-2.035156.339844-.710937.804688-1.453125 1.375-2.207031 3.398438-4.476563 8.746094-7.28125 14.023438-9.648438 3.085937-1.382812 6.394531-2.652344 9.097656-2.652344 1.300781 0 2.457031.292969 3.386719 1.003907 1.40625 1.078125 2.160156 3.433593 1.828125 5.730469zm27.441406 30.566406c-.839844 1.996094-1.605469 3.261718-2.476562 4.09375-.730469.695312-1.742188 1.277344-3.015626 1.726562-3.417968 1.210938-7.25.648438-9.316406-1.355468-1.664062-1.617188-2.519531-4.417969-2.230468-7.316407.28125-2.8125 1.496093-5.804687 3.714843-9.140625 1.78125-2.671875 4.808594-4.753906 7.53125-5.175781 1.742188-.265625 3.230469.117187 4.5625 1.183594 1.773438 1.421875 2.945313 3.949219 3.128907 6.765625.179687 2.71875-.441407 5.734375-1.898438 9.21875zm19.273438-33.578125c1.242187-1.613281 3.492187-3.476563 7.160156-3.210938 2.132812.152344 4.402344.960938 6.742187 2.390625 3.375 2.070313 5.960938 4.929688 7.285157 8.046875 1.363281 3.21875 1.371093 6.796875.027343 9.574219-1.308593 2.699219-4.105469 4.652344-6.796875 4.75-1.421875.054688-3.121094-.34375-5.171875-1.210938-5.355469-2.253906-9.289062-6.039062-10.792969-10.382812-1.167968-3.378906-.574218-7.191406 1.546876-9.957031zm148.496093 158.628906c-4.730469 11.75-15.296875 21.695313-29.746093 28.007813-13.480469 5.890624-28.660157 8.085937-43.054688 9.832031-77.570312 9.40625-139.382812 6.636719-194.53125-8.71875-15.621094-4.347657-33.140625-10.542969-44.628906-23.488281-9.890625-11.144532-14.433594-30.738282-4.523438-42.960938.0625-.078125.101563-.167969.160156-.25 6.914063 4.351562 15.183594 7.078125 23.476563 9.304688 47.222656 12.671874 96.59375 19.078124 145.824219 19.074218 26.421875 0 52.808594-1.84375 78.78125-5.558594 13.117187-1.871093 43.945312-6.28125 62.972656-19.480468 7.863281 8.265625 10.132812 22.160156 5.269531 34.238281zm0 0"/><path d="m301.421875 236.1875c12.105469-9.488281 18.851563-22.945312 18.042969-35.992188-.023438-.371093-.089844-.726562-.1875-1.066406 3.171875-2.246094 5.90625-4.878906 8.101562-7.859375 7.261719-9.859375 7.660156-23.429687 1.207032-32.386719 2.835937-6.078124 3.914062-13.148437 2.984374-20.347656-1.277343-9.910156-6.164062-18.609375-13.480468-24.113281.6875-1.367187 1.285156-2.761719 1.753906-4.195313 7.628906-23.226562-17.371094-50.460937-39.683594-69.21875-21.601562-18.160156-47.5625-30.972656-75.066406-37.050781-15.667969-3.460937-31.480469-4.660156-47-3.5625-29.800781 2.113281-59.082031 12.664063-84.6875 30.507813-25.601562 17.847656-45.632812 41.671875-57.925781 68.894531-3.746094 8.300781-8.078125 20.574219-2.449219 31.324219.960938 1.832031 2.136719 3.433594 3.457031 4.871094-7.53125 4.957031-12.21875 14.113281-11.460937 23.152343.359375 4.332031 1.972656 8.476563 4.445312 12.027344-4.515625 2.199219-7.683594 6.332031-8.917968 11.71875-1.527344 6.648437.15625 13.925781 4.386718 18.996094 3.117188 3.730469 7.273438 6.558593 12.40625 8.484375-1.628906 16.851562 10.167969 31.726562 22.722656 39.054687 12.980469 7.578125 28.253907 9.800781 42.785157 11.429688 26.980469 3.027343 51.929687 4.550781 75.304687 4.550781 39.847656 0 75.089844-4.429688 107.863282-13.386719 12.121093-3.3125 24.796874-7.523437 35.398437-15.832031zm-69.730469-212.628906c-1.867187 2.960937-4.992187 4.917968-6.933594 5.917968-2.574218 1.324219-6.398437 2.726563-10 1.882813-2.308593-.539063-4.609374-2.066406-6.480468-4.300781-2.796875-3.34375-4.234375-7.863282-3.984375-12.234375 9.335937 2.09375 18.507812 5.015625 27.398437 8.734375zm-56.484375-12.53125c-1.121093 4.234375-3.53125 8.164062-6.835937 11.019531-3.902344 3.378906-9.101563 5.320313-14.257813 5.332031-.011719 0-.023437 0-.035156 0-3.523437 0-8.351563-1.214844-10.398437-4.636718-.753907-1.261719-1.230469-2.960938-1.457032-5.203126-.171875-1.683593-.078125-2.859374.269532-3.503906.175781-.324218.308593-.664062.40625-1.003906 10.714843-1.769531 21.539062-2.425781 32.308593-2.003906zm-150.613281 92.886718c19.359375-42.875 59.035156-76.222656 104.550781-87.980468 1.003907-.261719 2.011719-.503906 3.015625-.742188-.054687 1.238282.015625 2.390625.113282 3.351563.375 3.734375 1.300781 6.789062 2.824218 9.335937 3.507813 5.863282 10.777344 9.5 18.976563 9.5h.058593c7.519532-.019531 15.09375-2.847656 20.777344-7.765625 5.285156-4.570312 9.019532-11.011719 10.402344-17.867187 3.046875.308594 6.082031.703125 9.105469 1.183594-.792969 7.335937 1.433593 14.859374 6.191406 20.546874 3.25 3.882813 7.464844 6.589844 11.867187 7.621094 1.472657.34375 2.996094.515625 4.554688.515625 3.945312 0 8.121094-1.09375 12.300781-3.242187 5.1875-2.667969 9.152344-6.371094 11.492188-10.648438.480469.238282.960937.464844 1.441406.707032 20.171875 10.191406 38.128906 23.894531 52.949219 40.988281 8.203125 9.460937 19.566406 24.175781 15.128906 37.691406-2.203125 6.699219-8.183594 12.679687-16.417969 16.402344-8.042969 3.636719-17.472656 5-25.792969 6.203125-71.765624 10.371094-148.148437 19.503906-223.710937 7.660156-9.0625-1.417969-18.828125-3.824219-22.53125-10.894531-2.742187-5.238281-1.882813-12.40625 2.703125-22.566407zm-.589844 39.332032c.511719-.222656.953125-.535156 1.34375-.894532 5.558594 2.660157 11.859375 4.015626 17.527344 4.902344 25.902344 4.0625 51.828125 5.707032 77.605469 5.707032 50.789062 0 100.980469-6.398438 149.082031-13.347657 8.976562-1.300781 19.152344-2.769531 28.484375-6.988281 5.632813-2.546875 10.476563-5.996094 14.273437-10.039062 5.035157 3.902343 8.414063 10.105468 9.332032 17.226562.980468 7.601562-1.015625 14.902344-5.46875 20.023438-4.457032 5.125-11.410156 8.109374-19.074219 8.191406-7.664063.039062-14.675781-2.753906-19.242187-7.777344-1.792969-1.976562-4.820313-2.195312-6.882813-.496094-7.324219 6.035156-16.019531 10.597656-25.140625 13.203125-5.828125 1.660157-12.078125 2.605469-18.128906 3.515625l-19.148438 2.890625c-9.214844 1.390625-18.746094 2.832031-27.71875 1.242188-2.070312-.367188-4.160156-.898438-6.375-1.460938-5.550781-1.410156-11.292968-2.867187-17.496094-1.925781-5.847656.886719-10.863281 3.71875-15.71875 6.460938-5.613281 3.171874-10.46875 5.914062-15.277343 4.957031-2.707031-.535157-5.441407-2.328125-8.335938-4.222657-4.195312-2.746093-8.9375-5.855468-14.898437-5.855468-.117188 0-.238282.003906-.359375.003906-5.90625.125-10.507813 3.273438-14.566407 6.054688-2.644531 1.808593-5.144531 3.519531-7.644531 4.1875-4.234375 1.136718-9.507812-.429688-16.113281-4.777344-1.097656-.722656-2.1875-1.476563-3.28125-2.226563-5.1875-3.574219-10.554688-7.265625-17.234375-8.667969-3.191406-.667968-6.277344-.71875-9.261719-.769531-2.835937-.046875-5.515625-.09375-7.90625-.683593-5.980468-1.480469-10.875-7.226563-11.386718-13.363282-.515626-6.140625 3.359374-12.617187 9.011718-15.070312zm-11.386718 52.230468c-2.199219-2.636718-3.132813-6.796874-2.316407-10.347656.394531-1.726562 1.359375-4 3.703125-5.0625 1.023438-.460937 1.800782-1.230468 2.304688-2.144531 2.332031 1.578125 4.914062 2.78125 7.667968 3.460937 3.492188.867188 6.875.921876 10.144532.976563 2.632812.042969 5.117187.082031 7.371094.558594 4.722656.988281 9.042968 3.964843 13.621093 7.117187 1.148438.789063 2.296875 1.582032 3.453125 2.34375 6.902344 4.539063 13.105469 6.785156 18.8125 6.785156 1.84375 0 3.632813-.234374 5.378906-.699218 4.15625-1.113282 7.640626-3.496094 10.714844-5.601563 3.324219-2.277343 6.199219-4.246093 9.125-4.304687 3.035156-.082032 6.0625 1.917968 9.570313 4.21875 3.402343 2.226562 7.253906 4.75 11.867187 5.664062 8.449219 1.675782 15.722656-2.429687 22.144532-6.054687 4.253906-2.402344 8.269531-4.671875 12.296874-5.28125 4.207032-.636719 8.738282.511719 13.539063 1.730469 2.289063.582031 4.660156 1.183593 7.09375 1.613281 10.582031 1.875 21.40625.242187 30.953125-1.195313l19.148438-2.890625c6.359374-.960937 12.933593-1.953125 19.378906-3.792969 9.019531-2.574218 17.671875-6.824218 25.265625-12.386718 6.164062 5.035156 14.277343 7.84375 22.929687 7.84375.144532 0 .289063 0 .433594-.003906 9.714844-.101563 18.695312-3.734376 24.996094-10.019532 2.082031 5.6875.523437 12.703125-2.890625 17.339844-6.101563 8.289062-16.574219 11.023438-22.273438 11.914062-8.207031 1.28125-16.570312.71875-25.425781.125-1.082031-.074218-2.160156-.148437-3.238281-.214843-10.089844-.644531-20.816407-1.023438-31.3125 1.984375-6.300781 1.808594-12.089844 4.738281-17.691407 7.570312-7.203124 3.644532-14.007812 7.085938-21.308593 7.9375-8.078125.945313-16.308594-1.328125-25.027344-3.734375-9.925781-2.738281-20.195313-5.574219-30.90625-3.664062-6.804687 1.214843-12.875 4.203125-18.742187 7.097656-6.492188 3.199219-12.621094 6.222656-19.042969 6.488281-8.015625.351563-15.613281-3.613281-23.660157-7.785156-6.09375-3.15625-12.390624-6.425781-19.332031-8.082031-6.582031-1.566407-13.179687-1.550781-19.5625-1.53125-2.886719.007812-5.605469.015625-8.332031-.113281-9.875-.46875-16.890625-3.113282-20.851562-7.859376zm71.351562 55.445313c-14.027344-1.574219-27.550781-3.535156-38.855469-10.132813-9.40625-5.492187-18.296875-16.132812-17.90625-28.003906 1.847657.257813 3.773438.441406 5.789063.539063 2.976562.140625 5.949218.128906 8.832031.125 6.058594-.019531 11.789063-.035157 17.214844 1.257812 5.746093 1.371094 11.234375 4.21875 17.046875 7.230469 8.46875 4.394531 17.214844 8.929688 27.289062 8.929688.460938 0 .921875-.011719 1.386719-.03125 8.535156-.351563 15.914063-3.992188 23.054687-7.507813 5.484376-2.703125 10.664063-5.257813 16.070313-6.21875 8.484375-1.515625 17.234375.902344 26.496094 3.457031 9.257812 2.554688 18.832031 5.203125 28.847656 4.027344 9.066406-1.058594 16.992187-5.070312 24.660156-8.949219 5.425781-2.742187 10.546875-5.332031 15.9375-6.878906 8.957031-2.570313 18.699219-2.210937 27.914063-1.617187 1.066406.066406 2.136718.140624 3.207031.210937 9.011719.605469 18.332031 1.230469 27.640625-.222656 3.847656-.601563 7.476562-1.554688 10.84375-2.828125-.726562 8.605468-5.933594 17.542968-14.1875 24.007812-9.203125 7.21875-20.753906 11.023438-31.863281 14.058594-50.738281 13.871094-107.746094 16.582031-179.417969 8.546875zm0 0"/><path d="m99.066406 67.523438c.386719 0 .777344-.007813 1.171875-.023438 7.507813-.332031 14.941407-3.015625 20.925781-7.558594 5.988282-4.539062 10.574219-10.972656 12.917969-18.113281.542969-1.65625 1.148438-3.878906 1.003907-6.347656-.425782-7.21875-6.453126-12.472657-14.992188-13.074219-5.246094-.386719-9.933594 1.953125-13.691406 3.820312l-.863282.429688c-3.125 1.535156-6.195312 3.402344-9.128906 5.539062-3.769531 2.746094-6.515625 5.378907-8.640625 8.277344-2.828125 3.859375-4.425781 8.140625-4.621093 12.378906-.136719 2.992188.453124 5.640626 1.75 7.867188 2.539062 4.359375 7.664062 6.804688 14.167968 6.804688zm-3.226562-21.140626c1.496094-2.042968 3.546875-3.984374 6.460937-6.105468 2.46875-1.800782 5.046875-3.363282 7.65625-4.648438l.894531-.445312c2.953126-1.464844 6-2.980469 8.539063-2.804688.222656.019532 5.519531.429688 5.710937 3.691406.046876.796876-.273437 1.890626-.519531 2.640626-1.714843 5.230468-5.074219 9.941406-9.457031 13.265624-4.386719 3.324219-9.828125 5.289063-15.324219 5.53125-3.035156.136719-5.546875-.597656-6.261719-1.820312-.304687-.523438-.445312-1.367188-.398437-2.378906.132813-2.859375 1.539063-5.347656 2.699219-6.925782zm0 0"/><path d="m179.476562 72.320312c3.578126 1.960938 7.367188 2.96875 11.023438 2.96875 1.613281 0 3.203125-.195312 4.738281-.59375 6.167969-1.601562 11.339844-6.546874 13.492188-12.90625 1.894531-5.597656 1.421875-12.105468-1.292969-17.851562-2.488281-5.261719-6.585938-9.445312-11.535156-11.78125-4.847656-2.285156-12.605469-3.46875-18.496094.71875-5.246094 3.726562-8.558594 8.390625-9.847656 13.859375-1.453125 6.164063-.152344 12.945313 3.476562 18.136719 2.097656 2.996094 5.015625 5.570312 8.441406 7.449218zm-2.183593-23.289062c.726562-3.078125 2.65625-5.695312 5.90625-8.007812.960937-.683594 2.207031-.960938 3.519531-.960938 1.695312 0 3.5.46875 4.917969 1.140625 2.816406 1.328125 5.28125 3.882813 6.757812 7.007813 1.621094 3.425781 1.9375 7.207031.867188 10.371093-1.070313 3.15625-3.632813 5.679688-6.535157 6.433594-2.492187.644531-5.570312.113281-8.445312-1.464844-2.082031-1.140625-3.828125-2.667969-5.050781-4.414062-2.023438-2.890625-2.75-6.671875-1.9375-10.105469zm0 0"/><path d="m128.664062 55.5c-2.917968 5.789062-4 11.726562-3.132812 17.171875 1.09375 6.820313 5.378906 12.621094 11.195312 15.132813 2.164063.933593 4.523438 1.386718 6.925782 1.386718 4.789062 0 9.734375-1.800781 13.59375-5.167968 4.617187-4.023438 7.78125-10.167969 8.917968-17.300782.765626-4.828125.515626-9.265625-.753906-13.191406-2.132812-6.601562-7.917968-11.730469-14.734375-13.070312-5.996093-1.183594-11.667969.792968-15.570312 5.414062-2.621094 3.109375-4.789063 6.347656-6.441407 9.625zm8.933594 4.5c1.296875-2.582031 3.03125-5.164062 5.152344-7.679688 1.441406-1.707031 3.136719-2.1875 4.601562-2.1875.496094 0 .96875.054688 1.394532.136719 3.207031.632813 6.148437 3.238281 7.148437 6.335938.78125 2.410156.914063 5.289062.394531 8.546875-.769531 4.820312-2.761718 8.847656-5.613281 11.335937-2.910156 2.539063-7.019531 3.414063-9.984375 2.136719-2.664062-1.152344-4.734375-4.105469-5.28125-7.53125-.679687-4.238281.8125-8.375 2.1875-11.09375zm0 0"/><path d="m229.296875 74.066406c3.523437 1.382813 7.136719 2.058594 10.605469 2.058594 5.234375 0 10.144531-1.542969 13.925781-4.554688 2.484375-1.976562 4.296875-4.4375 5.238281-7.113281 2-5.6875-.046875-12.65625-5.097656-17.339843-7.683594-7.125-21.734375-8.589844-30.679688-3.195313-.6875.414063-1.351562.878906-1.972656 1.375-6.75 5.40625-8.203125 14.253906-3.375 20.585937 2.65625 3.484376 6.582032 6.3125 11.355469 8.183594zm-1.730469-20.964844c.277344-.222656.578125-.429687.886719-.617187 2.019531-1.21875 4.703125-1.796875 7.480469-1.796875 4.199218 0 8.605468 1.324219 11.238281 3.765625 1.804687 1.671875 3.226563 4.507813 2.460937 6.6875-.3125.882813-1.03125 1.8125-2.03125 2.605469-3.457031 2.75-9.207031 3.144531-14.65625 1.011718-3.066406-1.203124-5.507812-2.910156-7.050781-4.941406-2.011719-2.632812.105469-5.460937 1.671875-6.714844zm0 0"/></svg>