<?xml version="1.0"?>
<svg xmlns="http://www.w3.org/2000/svg" id="filled_outline" data-name="filled outline" viewBox="0 0 64 64" width="512" height="512"><path d="M18,31V8.338a2.5,2.5,0,0,1,1.11325-2.08013l1.25694-.838A2.5,2.5,0,0,1,21.75694,5H27.75a2.5,2.5,0,0,1,2,1l1.5,2a2.5,2.5,0,0,0,2,1h.71447a2.5,2.5,0,0,0,1.76776-.73223l1.53554-1.53554A2.5,2.5,0,0,1,39.03553,6h1.27189a2.5,2.5,0,0,1,2.32119,1.57152l.74278,1.857A2.5,2.5,0,0,0,45.69258,11h3.90173a2.5,2.5,0,0,1,.79056.12829l.9057.3019A2.5,2.5,0,0,1,53,13.8019V15.5A2.5,2.5,0,0,0,55.5,18h0A2.5,2.5,0,0,1,58,20.5h0a3.62132,3.62132,0,0,0,1.06066,2.56066l.87868.87868A3.62132,3.62132,0,0,1,61,26.5v.56193a3.62133,3.62133,0,0,1-1.61257,3.01312l-.47513.31675A3.62131,3.62131,0,0,1,56.90355,31H18Z" style="fill:#4bbf6b"/><path d="M13,28V13.693A2.693,2.693,0,0,1,15.693,11h.49162a2.693,2.693,0,0,1,1.49381.45229l1.22567.81711a2.693,2.693,0,0,0,2.34541.3141l3.69225-1.23075a2.693,2.693,0,0,1,2.056.14611l5.51363,2.75681A2.693,2.693,0,0,1,34,16.66437h0a2.693,2.693,0,0,0,2.31215,2.66594l3.291.47014A2.693,2.693,0,0,1,41.631,21.262l1.08467,2.16934A2.693,2.693,0,0,1,43,24.63573V41H21Z" style="fill:#50cc72"/><path d="M31,40A12,12,0,0,1,43,28h8a2,2,0,0,1,2,2v2a2,2,0,0,1-2,2H48a4,4,0,0,0-4,4V51a8,8,0,0,1-8,8H31Z" style="fill:#55d979"/><path d="M42.921,55H37a6,6,0,0,1-6-6.00006V39A20,20,0,0,0,11,19H7a4,4,0,0,0-4,4v2a2,2,0,0,0,2,2H6A10,10,0,0,1,16,37v8A14,14,0,0,0,30,59h6A7.99018,7.99018,0,0,0,42.921,55Z" style="fill:#5ae680"/><path d="M59.76758,22.35352A2.64184,2.64184,0,0,1,59,20.5,3.50424,3.50424,0,0,0,55.5,17,1.50164,1.50164,0,0,1,54,15.5V13.80176a3.4942,3.4942,0,0,0-2.39258-3.31934l-.90625-.30273A3.49181,3.49181,0,0,0,49.59473,10H45.69238a1.4921,1.4921,0,0,1-1.39258-.94238L43.55762,7.2002A3.48377,3.48377,0,0,0,40.30762,5H39.03516a3.47711,3.47711,0,0,0-2.47461,1.02539L35.02539,7.56055A1.49078,1.49078,0,0,1,33.96484,8H33.25a1.50548,1.50548,0,0,1-1.2002-.59961l-1.499-2A3.51606,3.51606,0,0,0,27.75,4H21.75684a3.49479,3.49479,0,0,0-1.94141.58789l-1.25684.83789A3.4948,3.4948,0,0,0,17,8.33789v1.763A3.68361,3.68361,0,0,0,16.18457,10h-.49121A3.69805,3.69805,0,0,0,12,13.69336v4.3573C11.66632,18.03485,11.33752,18,11,18H7a5.00588,5.00588,0,0,0-5,5v2a3.00328,3.00328,0,0,0,3,3H6a9.00984,9.00984,0,0,1,9,9v8A15.01641,15.01641,0,0,0,30,60h6a9.00984,9.00984,0,0,0,9-9V38a3.00328,3.00328,0,0,1,3-3h3a3.00328,3.00328,0,0,0,3-3h2.90332a4.60894,4.60894,0,0,0,2.5625-.77539l.47656-.31738A4.61546,4.61546,0,0,0,62,27.06152V26.5a4.652,4.652,0,0,0-1.35352-3.26758ZM19.668,7.08984l1.25586-.83691A1.49233,1.49233,0,0,1,21.75684,6H27.75a1.50548,1.50548,0,0,1,1.2002.59961l1.499,2A3.51606,3.51606,0,0,0,33.25,10h.71484a3.47711,3.47711,0,0,0,2.47461-1.02539l1.53516-1.53516A1.49078,1.49078,0,0,1,39.03516,7h1.27246a1.4921,1.4921,0,0,1,1.39258.94238l.74218,1.85742A3.48377,3.48377,0,0,0,45.69238,12H46v1.40625a18.55856,18.55856,0,0,1-1.94824,8.25488L43.50018,22.764l-.97479-1.94959a3.69731,3.69731,0,0,0-2.78027-2.0039l-3.291-.47071A1.70115,1.70115,0,0,1,35,16.66406a3.67363,3.67363,0,0,0-2.041-3.30273l-5.51367-2.75684A3.71575,3.71575,0,0,0,24.625,10.4043l-3.69238,1.23047A1.6856,1.6856,0,0,1,19.459,11.4375L19,11.13141V8.33789A1.49922,1.49922,0,0,1,19.668,7.08984ZM31.4101,34.14294a20.81141,20.81141,0,0,0-1.29767-3.79541l1.72839-3.45593a20.58981,20.58981,0,0,0,2.10736-7.77234,3.68255,3.68255,0,0,0,2.22272,1.201l3.291.47071a1.69169,1.69169,0,0,1,1.27442.918l1.085,2.16895A1.708,1.708,0,0,1,42,24.63574v2.41492A13.00573,13.00573,0,0,0,31.4101,34.14294ZM14,13.69336A1.69545,1.69545,0,0,1,15.69336,12h.49121a1.69153,1.69153,0,0,1,.93945.28418l1.22559.81738a3.66813,3.66813,0,0,0,3.2168.42969l3.69043-1.22949a1.71013,1.71013,0,0,1,1.29394.09179L32,15.11816v2.624a18.55859,18.55859,0,0,1-1.94824,8.25488l-1.09,2.1795A21.00812,21.00812,0,0,0,14,18.23969ZM30,58A13.01505,13.01505,0,0,1,17,45V37a11.01018,11.01018,0,0,0-6.95233-10.21851l.55878-.2395a7.87912,7.87912,0,0,1,6.63183.19531l.31543.15723.89258-1.78906-.31445-.15723a9.86391,9.86391,0,0,0-8.3125-.24414L6.71149,26.036C6.4751,26.02075,6.24017,26,6,26H5a1.00067,1.00067,0,0,1-1-1V23a3.00328,3.00328,0,0,1,3-3h4a18.98825,18.98825,0,0,1,15.9212,8.66473l-.89679.89679A13.65184,13.65184,0,0,0,22,39.27734V44h2V39.27734a11.66306,11.66306,0,0,1,3.43848-8.30175l.5122-.51221A18.85678,18.85678,0,0,1,30,39V49a7.00848,7.00848,0,0,0,7,7h3.88928A6.97368,6.97368,0,0,1,36,58ZM52,32a1.00067,1.00067,0,0,1-1,1H48a5.00588,5.00588,0,0,0-5,5V51a6.94417,6.94417,0,0,1-.68518,3H37a5.00588,5.00588,0,0,1-5-5V40A11.01245,11.01245,0,0,1,43,29h8a1.00067,1.00067,0,0,1,1,1Zm8-4.93848a2.6158,2.6158,0,0,1-1.166,2.18067l-.47656.31738A2.61351,2.61351,0,0,1,56.90332,30H54a3.00328,3.00328,0,0,0-3-3H44v-.76361l1.84082-3.68073A20.576,20.576,0,0,0,48,13.40625V12h1.59473a1.49379,1.49379,0,0,1,.47363.07617l.90625.30371A1.49646,1.49646,0,0,1,52,13.80176V15.5A3.50424,3.50424,0,0,0,55.5,19,1.50164,1.50164,0,0,1,57,20.5a4.652,4.652,0,0,0,1.35352,3.26758l.8789.8789A2.64184,2.64184,0,0,1,60,26.5Z" style="fill:#231f20"/><path d="M59.76758,22.35352A2.64184,2.64184,0,0,1,59,20.5,3.50424,3.50424,0,0,0,55.5,17,1.50164,1.50164,0,0,1,54,15.5V13.80176a3.4942,3.4942,0,0,0-2.39258-3.31934l-.90625-.30273A3.49181,3.49181,0,0,0,49.59473,10H45.69238a1.4921,1.4921,0,0,1-1.39258-.94238L43.55762,7.2002A3.48377,3.48377,0,0,0,40.30762,5H39.03516a3.47711,3.47711,0,0,0-2.47461,1.02539L35.02539,7.56055A1.49078,1.49078,0,0,1,33.96484,8H33.25a1.50548,1.50548,0,0,1-1.2002-.59961l-1.499-2A3.51606,3.51606,0,0,0,27.75,4H21.75684a3.49479,3.49479,0,0,0-1.94141.58789l-1.25684.83789A3.4948,3.4948,0,0,0,17,8.33789v1.763A3.68361,3.68361,0,0,0,16.18457,10h-.49121A3.69805,3.69805,0,0,0,12,13.69336v4.3573C11.66632,18.03485,11.33752,18,11,18H7a5.00588,5.00588,0,0,0-5,5v2a3.00328,3.00328,0,0,0,3,3H6a9.00984,9.00984,0,0,1,9,9v8A15.01641,15.01641,0,0,0,30,60h6a9.00984,9.00984,0,0,0,9-9V38a3.00328,3.00328,0,0,1,3-3h3a3.00328,3.00328,0,0,0,3-3h2.90332a4.60894,4.60894,0,0,0,2.5625-.77539l.47656-.31738A4.61546,4.61546,0,0,0,62,27.06152V26.5a4.652,4.652,0,0,0-1.35352-3.26758ZM19.668,7.08984l1.25586-.83691A1.49233,1.49233,0,0,1,21.75684,6H27.75a1.50548,1.50548,0,0,1,1.2002.59961l1.499,2A3.51606,3.51606,0,0,0,33.25,10h.71484a3.47711,3.47711,0,0,0,2.47461-1.02539l1.53516-1.53516A1.49078,1.49078,0,0,1,39.03516,7h1.27246a1.4921,1.4921,0,0,1,1.39258.94238l.74218,1.85742A3.48377,3.48377,0,0,0,45.69238,12H46v1.40625a18.55856,18.55856,0,0,1-1.94824,8.25488L43.50018,22.764l-.97479-1.94959a3.69731,3.69731,0,0,0-2.78027-2.0039l-3.291-.47071A1.70115,1.70115,0,0,1,35,16.66406a3.67363,3.67363,0,0,0-2.041-3.30273l-5.51367-2.75684A3.71575,3.71575,0,0,0,24.625,10.4043l-3.69238,1.23047A1.6856,1.6856,0,0,1,19.459,11.4375L19,11.13141V8.33789A1.49922,1.49922,0,0,1,19.668,7.08984ZM31.4101,34.14294a20.81141,20.81141,0,0,0-1.29767-3.79541l1.72839-3.45593a20.58981,20.58981,0,0,0,2.10736-7.77234,3.68255,3.68255,0,0,0,2.22272,1.201l3.291.47071a1.69169,1.69169,0,0,1,1.27442.918l1.085,2.16895A1.708,1.708,0,0,1,42,24.63574v2.41492A13.00573,13.00573,0,0,0,31.4101,34.14294ZM14,13.69336A1.69545,1.69545,0,0,1,15.69336,12h.49121a1.69153,1.69153,0,0,1,.93945.28418l1.22559.81738a3.66813,3.66813,0,0,0,3.2168.42969l3.69043-1.22949a1.71013,1.71013,0,0,1,1.29394.09179L32,15.11816v2.624a18.55859,18.55859,0,0,1-1.94824,8.25488l-1.09,2.1795A21.00812,21.00812,0,0,0,14,18.23969ZM30,58A13.01505,13.01505,0,0,1,17,45V37a11.01018,11.01018,0,0,0-6.95233-10.21851l.55878-.2395a7.87912,7.87912,0,0,1,6.63183.19531l.31543.15723.89258-1.78906-.31445-.15723a9.86391,9.86391,0,0,0-8.3125-.24414L6.71149,26.036C6.4751,26.02075,6.24017,26,6,26H5a1.00067,1.00067,0,0,1-1-1V23a3.00328,3.00328,0,0,1,3-3h4a18.98825,18.98825,0,0,1,15.9212,8.66473l-.89679.89679A13.65184,13.65184,0,0,0,22,39.27734V44h2V39.27734a11.66306,11.66306,0,0,1,3.43848-8.30175l.5122-.51221A18.85678,18.85678,0,0,1,30,39V49a7.00848,7.00848,0,0,0,7,7h3.88928A6.97368,6.97368,0,0,1,36,58ZM52,32a1.00067,1.00067,0,0,1-1,1H48a5.00588,5.00588,0,0,0-5,5V51a6.94417,6.94417,0,0,1-.68518,3H37a5.00588,5.00588,0,0,1-5-5V40A11.01245,11.01245,0,0,1,43,29h8a1.00067,1.00067,0,0,1,1,1Zm8-4.93848a2.6158,2.6158,0,0,1-1.166,2.18067l-.47656.31738A2.61351,2.61351,0,0,1,56.90332,30H54a3.00328,3.00328,0,0,0-3-3H44v-.76361l1.84082-3.68073A20.576,20.576,0,0,0,48,13.40625V12h1.59473a1.49379,1.49379,0,0,1,.47363.07617l.90625.30371A1.49646,1.49646,0,0,1,52,13.80176V15.5A3.50424,3.50424,0,0,0,55.5,19,1.50164,1.50164,0,0,1,57,20.5a4.652,4.652,0,0,0,1.35352,3.26758l.8789.8789A2.64184,2.64184,0,0,1,60,26.5Z" style="fill:#231f20"/></svg>
